# xmcd
#
# Track frame offsets:
#	150
#	25462
#	44844
#	58387
#	81370
#	100420
#	120745
#	142997
#	155094
#
# Disc length: 2444 seconds
#
# Revision: 0
# Processed by: cddbd v1.5.2PL0 Copyright (c) Steve Scherf et al.
# Submitted via: EZCDAudioConverter 6.0.5.1
#
DISCID=87098a09
DTITLE=Rosedale - Long Way To Go
DYEAR=2017
DGENRE=Blues
TTITLE0=Bad News
TTITLE1=Soul Possession
TTITLE2=Man, I Don't Want You Around
TTITLE3=I Will Never Let You Go
TTITLE4=Long Way To Go
TTITLE5=When Evil Sets Its Sights On You
TTITLE6=Before You
TTITLE7=Lost Soul
TTITLE8=New Frontier
EXTD=
EXTT0=
EXTT1=
EXTT2=
EXTT3=
EXTT4=
EXTT5=
EXTT6=
EXTT7=
EXTT8=
PLAYORDER=
